inDegrees=no
num_controls=7
num_derivatives=13
num_iterations=155
num_multipliers=7
num_parameters=0
num_slacks=7
num_states=26
objective=5.447363
objective_accelerations=0.397139
objective_balance=0.036438
objective_effort=0.181312
objective_height=4.719433
objective_ligament=0.113041
solver_duration=1745.670758
status=Solve_Succeeded
success=true
DataType=double
version=3
OpenSimVersion=4.4-2022-07-23-0e9fedc
endheader
time	/jointset/ground_pelvis/pelvis_tilt/value	/jointset/ground_pelvis/pelvis_tx/value	/jointset/ground_pelvis/pelvis_ty/value	/jointset/hip_l/hip_flexion_l/value	/jointset/hip_l/hip_adduction_l/value	/jointset/hip_l/hip_rotation_l/value	/jointset/back/lumbar_extension/value	/jointset/patellofemoral_l/patellar_flexion_l/value	/jointset/knee_l/knee_flexion_l/value	/jointset/knee_l/knee_adduction_l/value	/jointset/knee_l/knee_rotation_l/value	/jointset/ankle_l/ankle_angle_l/value	/jointset/subtalar_l/subtalar_angle_l/value	/jointset/ground_pelvis/pelvis_tilt/speed	/jointset/ground_pelvis/pelvis_tx/speed	/jointset/ground_pelvis/pelvis_ty/speed	/jointset/hip_l/hip_flexion_l/speed	/jointset/hip_l/hip_adduction_l/speed	/jointset/hip_l/hip_rotation_l/speed	/jointset/back/lumbar_extension/speed	/jointset/patellofemoral_l/patellar_flexion_l/speed	/jointset/knee_l/knee_flexion_l/speed	/jointset/knee_l/knee_adduction_l/speed	/jointset/knee_l/knee_rotation_l/speed	/jointset/ankle_l/ankle_angle_l/speed	/jointset/subtalar_l/subtalar_angle_l/speed	/forceset/tau_hip_flexion_l	/forceset/tau_hip_adduction_l	/forceset/tau_hip_rotation_l	/forceset/tau_knee_flexion_l	/forceset/tau_ankle_angle_l	/forceset/tau_subtalar_angle_l	/forceset/tau_lumbar_extension	lambda_cid13_p0	lambda_cid13_p1	lambda_cid13_p2	lambda_cid13_p3	lambda_cid13_p4	lambda_cid13_p5	lambda_cid14_p0	/jointset/ground_pelvis/pelvis_tilt/accel	/jointset/ground_pelvis/pelvis_tx/accel	/jointset/ground_pelvis/pelvis_ty/accel	/jointset/hip_l/hip_flexion_l/accel	/jointset/hip_l/hip_adduction_l/accel	/jointset/hip_l/hip_rotation_l/accel	/jointset/back/lumbar_extension/accel	/jointset/patellofemoral_l/patellar_flexion_l/accel	/jointset/knee_l/knee_flexion_l/accel	/jointset/knee_l/knee_adduction_l/accel	/jointset/knee_l/knee_rotation_l/accel	/jointset/ankle_l/ankle_angle_l/accel	/jointset/subtalar_l/subtalar_angle_l/accel	gamma_cid13_p0	gamma_cid13_p1	gamma_cid13_p2	gamma_cid13_p3	gamma_cid13_p4	gamma_cid13_p5	gamma_cid14_p0
0	-0.04583432467092361	0.07170738010127065	0.896209004163446	0.1955292361009247	-0.3192095457009059	-0.5377100834128851	-0.137903700187828	0.07015350928390852	0.07015350928391206	-0.1745329251994329	-0.1694792175127032	-0.06701017130107029	0.00743469264808909	0	0	0	0	0	0	0	0	0	0	0	0	0	0.09994302697224987	-0.1374045052360247	-0.04401278577104974	-0.2732597575935998	0.2728726432450244	-0.01139737097853543	-0.03809368373874532	52.0795577846961	-8.534647633713526	6.011501368554216	-39.04884799038081	-522.437745535255	-91.96612521934657	-41.41434929256854	-1.856191975234673	-0.3201950746770899	-0.6139528733252637	6.853925464642181	-2.163281560959381	3.150564732268192	-2.368917849830162	8.747977436937033	8.74797743693647	0.3825062751080088	-0.2169949555849022	3.722229389501634	-0.3354803682801316	-5.341506662787585e-08	7.912355606343736e-08	1.23974231463507e-07	2.495003503893814e-08	-2.329665758526824e-08	-6.268559825138169e-08	-1.39811287801095e-08
0.01	-0.0459206494186878	0.07169128716602566	0.8961792963273556	0.1958587468118549	-0.3193157041640819	-0.5375513980346887	-0.1380254874275354	0.0705787103564466	0.07057871035631194	-0.1745159927493804	-0.1694845173660846	-0.0668295470884761	0.00741706828215246	-0.01714539144089055	-0.003253191778947972	-0.005921162854871144	0.06563395819614196	-0.02111563803064711	0.03161345203306238	-0.02414287680907849	0.08464990509853706	0.08464990509853004	0.003398106272379193	-0.001044162331108545	0.0359040091200603	-0.003519987503264772	0.09396793993015569	-0.1344632387417908	-0.04241259809566266	-0.2622681256906146	0.2559191410180606	-0.006239606959264176	-0.03349224121382943	46.78974073949725	-9.887608698567904	6.271921222095357	-35.55866616255273	-523.187495091998	-94.77592310055257	-41.42221184376066	-1.625790092365435	-0.3330669494489011	-0.5781419964049849	6.377891662642388	-2.068322248412129	3.148176843752481	-2.404786925888538	8.264953433567864	8.264953433567278	0.320230779334089	-0.04574149416396445	3.491357668723068	-0.3595512484798554	-8.540917740846703e-08	1.192948886233255e-07	1.66244839330958e-07	5.287685280105336e-08	-1.559116899330093e-07	-9.144748006079112e-08	-1.603960315553061e-08
0.02	-0.04617484355364879	0.07164162516900209	0.8960909880617485	0.196836549237876	-0.3196295424724199	-0.537080289855194	-0.1383822663012242	0.07183870175726029	0.07183870175726202	-0.1744647255255928	-0.1694997817674701	-0.0662965085855888	0.007364385379756418	-0.03357387743567778	-0.006713812355715343	-0.01172008590331628	0.1296583430139918	-0.04153596903309481	0.06248456026319394	-0.04699832679579078	0.166958065687296	0.1669580656872851	0.006866931586013551	-0.001992909553805873	0.07048285805870784	-0.007011707291738185	0.08799285288842197	-0.1315219722475189	-0.04081241041879061	-0.2512764937877318	0.2389656387911295	-0.001081842939950031	-0.0288907986886685	41.55462377182733	-11.25051958429391	6.534354625743666	-32.2814005590005	-523.1874225830927	-97.43013122992309	-41.44538391828172	-1.712810886013777	-0.3616808342411335	-0.5895049120400573	6.532010788983699	-2.024220155319504	3.002095971682019	-2.111432485356683	8.279628534981388	8.279628534981468	0.3966500833590216	-0.1979119339026895	3.45719735321888	-0.3298268253219779	-1.174032881890582e-07	1.594662211832136e-07	2.08515447198409e-07	8.080367056316858e-08	-2.885267222807505e-07	-1.202093618702006e-07	-1.809807753095172e-08
0.03	-0.04659050291934045	0.07155700426299012	0.8959451287312757	0.1984468021257864	-0.3201441794887536	-0.5363044691579519	-0.1389610265704609	0.073910572486986	0.0739105724870241	-0.1743785938517214	-0.1695244392234117	-0.06542330472988814	0.007277382957116489	-0.04948127184241488	-0.01017514150465747	-0.01744320903753852	0.1920855656829003	-0.06127960655711248	0.09254431428510505	-0.0685603302682808	0.2470302627413507	0.2470302627413422	0.0103387727384216	-0.002927123634237358	0.1040193119548904	-0.0103449215971478	0.08476054899490053	-0.1262158513829995	-0.04014484823182613	-0.2472666713815866	0.2343787456587546	-0.002258959195014133	-0.02621626123812486	40.02861043998881	-10.58105787344229	6.552074830855991	-31.28555168626856	-523.5528432351765	-95.50292415539704	-41.48294746314883	-1.518210274613232	-0.3330585807420652	-0.5624885822144985	6.05205743438168	-1.93270416791736	2.987601273331332	-2.149574760117823	7.813146290261644	7.813146290262087	0.3194095644924001	-0.03943529454025999	3.281070871335686	-0.328538088554562	-1.469608875383519e-07	1.686250485169869e-07	2.564768023273699e-07	1.029767893721801e-07	-3.985159741061999e-07	-1.552067000770592e-07	-2.43044049533585e-08
0.04	-0.04716293754043707	0.07143883014038434	0.8957422836558415	0.2006721231260909	-0.3208529066037161	-0.5352321136893071	-0.1397496049708055	0.07677159138723441	0.07677159138723766	-0.1742583520795836	-0.1695580906499608	-0.06421889604252301	0.007158354520341129	-0.06492892851349073	-0.01342445567447853	-0.02311723489560518	0.2526719654933171	-0.08035398876010127	0.1217915145424462	-0.08896195301764008	0.3247876997811663	0.3247876997811612	0.01368895122325053	-0.003791703691745568	0.13672382439178	-0.0134169101187258	0.0815282451014515	-0.1209097305185394	-0.03947728604527291	-0.2432568489753627	0.2297918525263645	-0.003436075450146272	-0.02354172378748226	38.55358123628883	-9.918972573813051	6.569201309944584	-30.48830264265439	-523.2247409897873	-93.42729718082772	-41.53375386226427	-1.62086333888134	-0.3192778384170595	-0.5796854568089379	6.163846217285307	-1.890369091113728	2.839585218768016	-1.879356340730333	7.81667653213356	7.816676532133851	0.3723175498431996	-0.1839851293180634	3.290809061360101	-0.2775816685557465	-1.764682495385466e-07	1.771444427533145e-07	3.045554924514135e-07	1.250312752130865e-07	-5.080387149930454e-07	-1.903326043952055e-07	-3.059625511900211e-08
